<svg id="Capa_1" data-name="Capa 1" xmlns="http://www.w3.org/2000/svg" viewBox="0 0 1281 369.59"><defs><style>.cls-1{fill:none;stroke:#000;stroke-miterlimit:10;}</style></defs><polygon class="cls-1" points="39.29 78.13 0.5 58.74 0.5 19.95 39.29 0.56 78.08 19.95 78.08 58.74 39.29 78.13"/><polygon class="cls-1" points="78.08 97.53 39.29 78.13 39.29 39.35 78.08 19.95 116.86 39.35 116.86 78.13 78.08 97.53"/><polygon class="cls-1" points="116.86 116.92 78.08 97.53 78.08 58.74 116.86 39.35 155.65 58.74 155.65 97.53 116.86 116.92"/><polygon class="cls-1" points="155.65 136.31 116.86 116.92 116.86 78.13 155.65 58.74 194.44 78.13 194.44 116.92 155.65 136.31"/><polygon class="cls-1" points="194.44 155.71 155.65 136.31 155.65 97.53 194.44 78.13 233.22 97.53 233.22 136.31 194.44 155.71"/><polygon class="cls-1" points="233.22 175.1 194.44 155.71 194.44 116.92 233.22 97.53 272.01 116.92 272.01 155.71 233.22 175.1"/><polygon class="cls-1" points="194.44 78.13 155.65 58.74 155.65 19.95 194.44 0.56 233.23 19.95 233.23 58.74 194.44 78.13"/><polygon class="cls-1" points="39.29 155.71 0.5 136.31 0.5 97.53 39.29 78.13 78.08 97.53 78.08 136.31 39.29 155.71"/><polygon class="cls-1" points="78.08 175.1 39.29 155.71 39.29 116.92 78.08 97.53 116.86 116.92 116.86 155.71 78.08 175.1"/><polygon class="cls-1" points="116.86 194.49 78.08 175.1 78.08 136.31 116.86 116.92 155.65 136.31 155.65 175.1 116.86 194.49"/><polygon class="cls-1" points="155.65 213.89 116.86 194.49 116.86 155.71 155.65 136.31 194.44 155.71 194.44 194.49 155.65 213.89"/><polygon class="cls-1" points="233.23 97.53 194.44 78.13 194.44 39.35 233.23 19.95 272.01 39.35 272.01 78.13 233.23 97.53"/><polygon class="cls-1" points="272.01 116.92 233.22 97.53 233.22 58.74 272.01 39.35 310.8 58.74 310.8 97.53 272.01 116.92"/><polygon class="cls-1" points="310.8 136.31 272.01 116.92 272.01 78.13 310.8 58.74 349.59 78.13 349.59 116.92 310.8 136.31"/><polygon class="cls-1" points="272.01 194.49 233.23 175.1 233.23 136.31 272.01 116.92 310.8 136.31 310.8 175.1 272.01 194.49"/><polygon class="cls-1" points="310.8 213.89 272.01 194.49 272.01 155.71 310.8 136.31 349.59 155.71 349.59 194.49 310.8 213.89"/><polygon class="cls-1" points="349.59 78.13 310.81 58.74 310.81 19.95 349.59 0.56 388.38 19.95 388.38 58.74 349.59 78.13"/><polygon class="cls-1" points="388.38 97.53 349.59 78.13 349.59 39.35 388.38 19.95 427.17 39.35 427.17 78.13 388.38 97.53"/><polygon class="cls-1" points="427.17 116.92 388.38 97.53 388.38 58.74 427.17 39.35 465.95 58.74 465.95 97.53 427.17 116.92"/><polygon class="cls-1" points="465.95 136.31 427.17 116.92 427.17 78.13 465.95 58.74 504.74 78.13 504.74 116.92 465.95 136.31"/><polygon class="cls-1" points="504.74 155.71 465.95 136.31 465.95 97.53 504.74 78.13 543.53 97.53 543.53 136.31 504.74 155.71"/><polygon class="cls-1" points="543.53 175.1 504.74 155.71 504.74 116.92 543.53 97.53 582.32 116.92 582.32 155.71 543.53 175.1"/><polygon class="cls-1" points="504.74 78.13 465.96 58.74 465.96 19.95 504.74 0.56 543.53 19.95 543.53 58.74 504.74 78.13"/><polygon class="cls-1" points="349.59 155.71 310.81 136.31 310.81 97.53 349.59 78.13 388.38 97.53 388.38 136.31 349.59 155.71"/><polygon class="cls-1" points="388.38 175.1 349.59 155.71 349.59 116.92 388.38 97.53 427.17 116.92 427.17 155.71 388.38 175.1"/><polygon class="cls-1" points="427.17 194.49 388.38 175.1 388.38 136.31 427.17 116.92 465.95 136.31 465.95 175.1 427.17 194.49"/><polygon class="cls-1" points="465.96 213.89 427.17 194.49 427.17 155.71 465.96 136.31 504.74 155.71 504.74 194.49 465.96 213.89"/><polygon class="cls-1" points="543.53 97.53 504.74 78.13 504.74 39.35 543.53 19.95 582.32 39.35 582.32 78.13 543.53 97.53"/><polygon class="cls-1" points="582.32 116.92 543.53 97.53 543.53 58.74 582.32 39.35 621.11 58.74 621.11 97.53 582.32 116.92"/><polygon class="cls-1" points="621.11 136.31 582.32 116.92 582.32 78.13 621.11 58.74 659.89 78.13 659.89 116.92 621.11 136.31"/><polygon class="cls-1" points="582.32 194.49 543.53 175.1 543.53 136.31 582.32 116.92 621.11 136.31 621.11 175.1 582.32 194.49"/><polygon class="cls-1" points="621.11 213.89 582.32 194.49 582.32 155.71 621.11 136.31 659.89 155.71 659.89 194.49 621.11 213.89"/><polygon class="cls-1" points="659.89 78.13 621.11 58.74 621.11 19.95 659.89 0.56 698.68 19.95 698.68 58.74 659.89 78.13"/><polygon class="cls-1" points="698.68 97.53 659.89 78.13 659.89 39.35 698.68 19.95 737.47 39.35 737.47 78.13 698.68 97.53"/><polygon class="cls-1" points="737.47 116.92 698.68 97.53 698.68 58.74 737.47 39.35 776.26 58.74 776.26 97.53 737.47 116.92"/><polygon class="cls-1" points="776.26 136.31 737.47 116.92 737.47 78.13 776.26 58.74 815.04 78.13 815.04 116.92 776.26 136.31"/><polygon class="cls-1" points="815.04 155.71 776.26 136.31 776.26 97.53 815.04 78.13 853.83 97.53 853.83 136.31 815.04 155.71"/><polygon class="cls-1" points="853.83 175.1 815.04 155.71 815.04 116.92 853.83 97.53 892.62 116.92 892.62 155.71 853.83 175.1"/><polygon class="cls-1" points="815.05 78.13 776.26 58.74 776.26 19.95 815.05 0.56 853.83 19.95 853.83 58.74 815.05 78.13"/><polygon class="cls-1" points="659.89 155.71 621.11 136.31 621.11 97.53 659.89 78.13 698.68 97.53 698.68 136.31 659.89 155.71"/><polygon class="cls-1" points="698.68 175.1 659.89 155.71 659.89 116.92 698.68 97.53 737.47 116.92 737.47 155.71 698.68 175.1"/><polygon class="cls-1" points="737.47 194.49 698.68 175.1 698.68 136.31 737.47 116.92 776.26 136.31 776.26 175.1 737.47 194.49"/><polygon class="cls-1" points="776.26 213.89 737.47 194.49 737.47 155.71 776.26 136.31 815.05 155.71 815.05 194.49 776.26 213.89"/><polygon class="cls-1" points="853.83 97.53 815.05 78.13 815.05 39.35 853.83 19.95 892.62 39.35 892.62 78.13 853.83 97.53"/><polygon class="cls-1" points="892.62 116.92 853.83 97.53 853.83 58.74 892.62 39.35 931.41 58.74 931.41 97.53 892.62 116.92"/><polygon class="cls-1" points="931.41 136.31 892.62 116.92 892.62 78.13 931.41 58.74 970.2 78.13 970.2 116.92 931.41 136.31"/><polygon class="cls-1" points="892.62 194.49 853.83 175.1 853.83 136.31 892.62 116.92 931.41 136.31 931.41 175.1 892.62 194.49"/><polygon class="cls-1" points="931.41 213.89 892.62 194.49 892.62 155.71 931.41 136.31 970.2 155.71 970.2 194.49 931.41 213.89"/><polygon class="cls-1" points="970.2 78.13 931.41 58.74 931.41 19.95 970.2 0.56 1008.99 19.95 1008.99 58.74 970.2 78.13"/><polygon class="cls-1" points="1008.99 97.53 970.2 78.13 970.2 39.35 1008.99 19.95 1047.77 39.35 1047.77 78.13 1008.99 97.53"/><polygon class="cls-1" points="1047.77 116.92 1008.99 97.53 1008.99 58.74 1047.77 39.35 1086.56 58.74 1086.56 97.53 1047.77 116.92"/><polygon class="cls-1" points="1086.56 136.31 1047.77 116.92 1047.77 78.13 1086.56 58.74 1125.35 78.13 1125.35 116.92 1086.56 136.31"/><polygon class="cls-1" points="1125.35 155.71 1086.56 136.31 1086.56 97.53 1125.35 78.13 1164.14 97.53 1164.14 136.31 1125.35 155.71"/><polygon class="cls-1" points="1164.14 175.1 1125.35 155.71 1125.35 116.92 1164.14 97.53 1202.92 116.92 1202.92 155.71 1164.14 175.1"/><polygon class="cls-1" points="1125.35 78.13 1086.56 58.74 1086.56 19.95 1125.35 0.56 1164.14 19.95 1164.14 58.74 1125.35 78.13"/><polygon class="cls-1" points="970.2 155.71 931.41 136.31 931.41 97.53 970.2 78.13 1008.99 97.53 1008.99 136.31 970.2 155.71"/><polygon class="cls-1" points="1008.99 175.1 970.2 155.71 970.2 116.92 1008.99 97.53 1047.77 116.92 1047.77 155.71 1008.99 175.1"/><polygon class="cls-1" points="1047.77 194.49 1008.99 175.1 1008.99 136.31 1047.77 116.92 1086.56 136.31 1086.56 175.1 1047.77 194.49"/><polygon class="cls-1" points="1086.56 213.89 1047.78 194.49 1047.78 155.71 1086.56 136.31 1125.35 155.71 1125.35 194.49 1086.56 213.89"/><polygon class="cls-1" points="1164.14 97.53 1125.35 78.13 1125.35 39.35 1164.14 19.95 1202.93 39.35 1202.93 78.13 1164.14 97.53"/><polygon class="cls-1" points="1202.92 116.92 1164.14 97.53 1164.14 58.74 1202.92 39.35 1241.71 58.74 1241.71 97.53 1202.92 116.92"/><polygon class="cls-1" points="1241.71 136.31 1202.92 116.92 1202.92 78.13 1241.71 58.74 1280.5 78.13 1280.5 116.92 1241.71 136.31"/><polygon class="cls-1" points="1202.93 194.49 1164.14 175.1 1164.14 136.31 1202.93 116.92 1241.71 136.31 1241.71 175.1 1202.93 194.49"/><polygon class="cls-1" points="1241.71 213.89 1202.92 194.49 1202.92 155.71 1241.71 136.31 1280.5 155.71 1280.5 194.49 1241.71 213.89"/><polygon class="cls-1" points="39.29 233.28 0.5 213.89 0.5 175.1 39.29 155.71 78.08 175.1 78.08 213.89 39.29 233.28"/><polygon class="cls-1" points="78.08 252.67 39.29 233.28 39.29 194.49 78.08 175.1 116.86 194.49 116.86 233.28 78.08 252.67"/><polygon class="cls-1" points="116.86 272.07 78.08 252.67 78.08 213.89 116.86 194.49 155.65 213.89 155.65 252.67 116.86 272.07"/><polygon class="cls-1" points="155.65 291.46 116.86 272.07 116.86 233.28 155.65 213.89 194.44 233.28 194.44 272.07 155.65 291.46"/><polygon class="cls-1" points="194.44 310.85 155.65 291.46 155.65 252.67 194.44 233.28 233.23 252.67 233.23 291.46 194.44 310.85"/><polygon class="cls-1" points="233.23 330.25 194.44 310.85 194.44 272.07 233.23 252.67 272.01 272.07 272.01 310.85 233.23 330.25"/><polygon class="cls-1" points="194.44 233.28 155.65 213.89 155.65 175.1 194.44 155.71 233.23 175.1 233.23 213.89 194.44 233.28"/><polygon class="cls-1" points="39.29 310.85 0.5 291.46 0.5 252.67 39.29 233.28 78.08 252.67 78.08 291.46 39.29 310.85"/><polygon class="cls-1" points="78.08 330.25 39.29 310.85 39.29 272.07 78.08 252.67 116.86 272.07 116.86 310.85 78.08 330.25"/><polygon class="cls-1" points="116.86 349.64 78.08 330.25 78.08 291.46 116.86 272.07 155.65 291.46 155.65 330.25 116.86 349.64"/><polygon class="cls-1" points="155.65 369.03 116.86 349.64 116.86 310.85 155.65 291.46 194.44 310.85 194.44 349.64 155.65 369.03"/><polygon class="cls-1" points="233.23 252.67 194.44 233.28 194.44 194.49 233.23 175.1 272.01 194.49 272.01 233.28 233.23 252.67"/><polygon class="cls-1" points="272.01 272.07 233.23 252.67 233.23 213.89 272.01 194.49 310.8 213.89 310.8 252.67 272.01 272.07"/><polygon class="cls-1" points="310.8 291.46 272.01 272.07 272.01 233.28 310.8 213.89 349.59 233.28 349.59 272.07 310.8 291.46"/><polygon class="cls-1" points="272.01 349.64 233.23 330.25 233.23 291.46 272.01 272.07 310.8 291.46 310.8 330.25 272.01 349.64"/><polygon class="cls-1" points="310.8 369.03 272.01 349.64 272.01 310.85 310.8 291.46 349.59 310.85 349.59 349.64 310.8 369.03"/><polygon class="cls-1" points="349.59 233.28 310.81 213.89 310.81 175.1 349.59 155.71 388.38 175.1 388.38 213.89 349.59 233.28"/><polygon class="cls-1" points="388.38 252.67 349.59 233.28 349.59 194.49 388.38 175.1 427.17 194.49 427.17 233.28 388.38 252.67"/><polygon class="cls-1" points="427.17 272.07 388.38 252.67 388.38 213.89 427.17 194.49 465.95 213.89 465.95 252.67 427.17 272.07"/><polygon class="cls-1" points="465.95 291.46 427.17 272.07 427.17 233.28 465.95 213.89 504.74 233.28 504.74 272.07 465.95 291.46"/><polygon class="cls-1" points="504.74 310.85 465.95 291.46 465.95 252.67 504.74 233.28 543.53 252.67 543.53 291.46 504.74 310.85"/><polygon class="cls-1" points="543.53 330.25 504.74 310.85 504.74 272.07 543.53 252.67 582.32 272.07 582.32 310.85 543.53 330.25"/><polygon class="cls-1" points="504.74 233.28 465.96 213.89 465.96 175.1 504.74 155.71 543.53 175.1 543.53 213.89 504.74 233.28"/><polygon class="cls-1" points="349.59 310.85 310.81 291.46 310.81 252.67 349.59 233.28 388.38 252.67 388.38 291.46 349.59 310.85"/><polygon class="cls-1" points="388.38 330.25 349.59 310.85 349.59 272.07 388.38 252.67 427.17 272.07 427.17 310.85 388.38 330.25"/><polygon class="cls-1" points="427.17 349.64 388.38 330.25 388.38 291.46 427.17 272.07 465.95 291.46 465.95 330.25 427.17 349.64"/><polygon class="cls-1" points="465.96 369.03 427.17 349.64 427.17 310.85 465.96 291.46 504.74 310.85 504.74 349.64 465.96 369.03"/><polygon class="cls-1" points="543.53 252.67 504.74 233.28 504.74 194.49 543.53 175.1 582.32 194.49 582.32 233.28 543.53 252.67"/><polygon class="cls-1" points="582.32 272.07 543.53 252.67 543.53 213.89 582.32 194.49 621.11 213.89 621.11 252.67 582.32 272.07"/><polygon class="cls-1" points="621.11 291.46 582.32 272.07 582.32 233.28 621.11 213.89 659.89 233.28 659.89 272.07 621.11 291.46"/><polygon class="cls-1" points="582.32 349.64 543.53 330.25 543.53 291.46 582.32 272.07 621.11 291.46 621.11 330.25 582.32 349.64"/><polygon class="cls-1" points="621.11 369.03 582.32 349.64 582.32 310.85 621.11 291.46 659.89 310.85 659.89 349.64 621.11 369.03"/><polygon class="cls-1" points="659.89 233.28 621.11 213.89 621.11 175.1 659.89 155.71 698.68 175.1 698.68 213.89 659.89 233.28"/><polygon class="cls-1" points="698.68 252.67 659.89 233.28 659.89 194.49 698.68 175.1 737.47 194.49 737.47 233.28 698.68 252.67"/><polygon class="cls-1" points="737.47 272.07 698.68 252.67 698.68 213.89 737.47 194.49 776.26 213.89 776.26 252.67 737.47 272.07"/><polygon class="cls-1" points="776.26 291.46 737.47 272.07 737.47 233.28 776.26 213.89 815.04 233.28 815.04 272.07 776.26 291.46"/><polygon class="cls-1" points="815.04 310.85 776.26 291.46 776.26 252.67 815.04 233.28 853.83 252.67 853.83 291.46 815.04 310.85"/><polygon class="cls-1" points="853.83 330.25 815.04 310.85 815.04 272.07 853.83 252.67 892.62 272.07 892.62 310.85 853.83 330.25"/><polygon class="cls-1" points="815.05 233.28 776.26 213.89 776.26 175.1 815.05 155.71 853.83 175.1 853.83 213.89 815.05 233.28"/><polygon class="cls-1" points="659.89 310.85 621.11 291.46 621.11 252.67 659.89 233.28 698.68 252.67 698.68 291.46 659.89 310.85"/><polygon class="cls-1" points="698.68 330.25 659.89 310.85 659.89 272.07 698.68 252.67 737.47 272.07 737.47 310.85 698.68 330.25"/><polygon class="cls-1" points="737.47 349.64 698.68 330.25 698.68 291.46 737.47 272.07 776.26 291.46 776.26 330.25 737.47 349.64"/><polygon class="cls-1" points="776.26 369.03 737.47 349.64 737.47 310.85 776.26 291.46 815.05 310.85 815.05 349.64 776.26 369.03"/><polygon class="cls-1" points="853.83 252.67 815.05 233.28 815.05 194.49 853.83 175.1 892.62 194.49 892.62 233.28 853.83 252.67"/><polygon class="cls-1" points="892.62 272.07 853.83 252.67 853.83 213.89 892.62 194.49 931.41 213.89 931.41 252.67 892.62 272.07"/><polygon class="cls-1" points="931.41 291.46 892.62 272.07 892.62 233.28 931.41 213.89 970.2 233.28 970.2 272.07 931.41 291.46"/><polygon class="cls-1" points="892.62 349.64 853.83 330.25 853.83 291.46 892.62 272.07 931.41 291.46 931.41 330.25 892.62 349.64"/><polygon class="cls-1" points="931.41 369.03 892.62 349.64 892.62 310.85 931.41 291.46 970.2 310.85 970.2 349.64 931.41 369.03"/><polygon class="cls-1" points="970.2 233.28 931.41 213.89 931.41 175.1 970.2 155.71 1008.99 175.1 1008.99 213.89 970.2 233.28"/><polygon class="cls-1" points="1008.99 252.67 970.2 233.28 970.2 194.49 1008.99 175.1 1047.78 194.49 1047.78 233.28 1008.99 252.67"/><polygon class="cls-1" points="1047.78 272.07 1008.99 252.67 1008.99 213.89 1047.78 194.49 1086.56 213.89 1086.56 252.67 1047.78 272.07"/><polygon class="cls-1" points="1086.56 291.46 1047.78 272.07 1047.78 233.28 1086.56 213.89 1125.35 233.28 1125.35 272.07 1086.56 291.46"/><polygon class="cls-1" points="1125.35 310.85 1086.56 291.46 1086.56 252.67 1125.35 233.28 1164.14 252.67 1164.14 291.46 1125.35 310.85"/><polygon class="cls-1" points="1164.14 330.25 1125.35 310.85 1125.35 272.07 1164.14 252.67 1202.92 272.07 1202.92 310.85 1164.14 330.25"/><polygon class="cls-1" points="1125.35 233.28 1086.56 213.89 1086.56 175.1 1125.35 155.71 1164.14 175.1 1164.14 213.89 1125.35 233.28"/><polygon class="cls-1" points="970.2 310.85 931.41 291.46 931.41 252.67 970.2 233.28 1008.99 252.67 1008.99 291.46 970.2 310.85"/><polygon class="cls-1" points="1008.99 330.25 970.2 310.85 970.2 272.07 1008.99 252.67 1047.78 272.07 1047.78 310.85 1008.99 330.25"/><polygon class="cls-1" points="1047.78 349.64 1008.99 330.25 1008.99 291.46 1047.78 272.07 1086.56 291.46 1086.56 330.25 1047.78 349.64"/><polygon class="cls-1" points="1086.56 369.03 1047.78 349.64 1047.78 310.85 1086.56 291.46 1125.35 310.85 1125.35 349.64 1086.56 369.03"/><polygon class="cls-1" points="1164.14 252.67 1125.35 233.28 1125.35 194.49 1164.14 175.1 1202.93 194.49 1202.93 233.28 1164.14 252.67"/><polygon class="cls-1" points="1202.92 272.07 1164.14 252.67 1164.14 213.89 1202.92 194.49 1241.71 213.89 1241.71 252.67 1202.92 272.07"/><polygon class="cls-1" points="1241.71 291.46 1202.92 272.07 1202.92 233.28 1241.71 213.89 1280.5 233.28 1280.5 272.07 1241.71 291.46"/><polygon class="cls-1" points="1202.93 349.64 1164.14 330.25 1164.14 291.46 1202.93 272.07 1241.71 291.46 1241.71 330.25 1202.93 349.64"/><polygon class="cls-1" points="1241.71 369.03 1202.92 349.64 1202.92 310.85 1241.71 291.46 1280.5 310.85 1280.5 349.64 1241.71 369.03"/></svg>